# xmcd
#
# Track frame offsets:
#	187
#	13227
#	25450
#	39972
#	52082
#	67315
#	81882
#	93147
#	105680
#	121162
#	132370
#	144992
#	160055
#	171297
#	182990
#	196620
#	215647
#	230472
#	241017
#	250765
#
# Disc length: 3495 seconds
#
# Revision: 3
# Processed by: cddbd v1.5.2PL0 Copyright (c) Steve Scherf et al.
# Submitted via: dBpowerAMP V4.0
#
DISCID=130da514
DTITLE=Various Artist - Country Sweet 'n' Sentimental disc 4
DYEAR=1993
DGENRE=Country
TTITLE0=The Statler Brothers - Take Me Home, Country Roads
TTITLE1=Jim Ed Brown - Detroit City
TTITLE2=Alabama - Song of the South
TTITLE3=Glen Campbell - Homeward Bound
TTITLE4=Dolly Parton - Tennessee Homesick Blues
TTITLE5=Bill Anderson - Saginaw,  Michigan
TTITLE6=Conway Twitty - Green, Green, Grass of Home
TTITLE7=Merle Haggard - The Roots of My Raising
TTITLE8=Earl Thomas Conley - Smokey Mountain Memories
TTITLE9=Charley Pide - Wings of a Dove
TTITLE10=Skeeter Davis - Precious Memories
TTITLE11=Jimmy Dean - Mama Sang a Song
TTITLE12=Loretta Lynn - He' Got The Whole World in His Hands
TTITLE13=The Browns, Jim Ed Brown - The Great Speckled Bird
TTITLE14=Jimmy Dean - Just a Closer Walk With Thee
TTITLE15=Connie Smith - How Great Thou Art
TTITLE16=Elvis Presley, The Imperials Quartet - Put Your Hand in the Hand
TTITLE17=Jim Reeves - In the Garden
TTITLE18=Red Foley - The Church in the Wildwood
TTITLE19=Loretta Lynn - I Believe
EXTD=additions and corrections
EXTT0=
EXTT1=
EXTT2=
EXTT3=
EXTT4=
EXTT5=
EXTT6=
EXTT7=
EXTT8=
EXTT9=
EXTT10=
EXTT11=
EXTT12=
EXTT13=
EXTT14=
EXTT15=
EXTT16=
EXTT17=
EXTT18=
EXTT19=
PLAYORDER=
